<svg width="301" height="77" viewBox="0 0 301 77" fill="none" xmlns="http://www.w3.org/2000/svg" role="img" aria-label="Conduit">
<rect x="45" y="16" width="26" height="35" rx="6" transform="rotate(90 45 16)" fill="#4F46E5" stroke="#4F46E5" stroke-width="4"/>
<rect x="49" y="23" width="26" height="43" rx="6" transform="rotate(90 49 23)" fill="#4F46E5" stroke="#4F46E5" stroke-width="4"/>
<rect x="53" y="31" width="30" height="51" rx="6" transform="rotate(90 53 31)" fill="#4F46E5" stroke="#4F46E5" stroke-width="4"/>
<path d="M91.48 59.84C88.64 59.84 86.08 59.24 83.8 58.04C81.56 56.8 79.78 55.04 78.46 52.76C77.18 50.48 76.54 47.78 76.54 44.66V44C76.54 40.84 77.18 38.14 78.46 35.9C79.78 33.62 81.56 31.88 83.8 30.68C86.08 29.44 88.64 28.82 91.48 28.82C94.28 28.82 96.66 29.34 98.62 30.38C100.62 31.42 102.18 32.8 103.3 34.52C104.46 36.24 105.2 38.08 105.52 40.04L100.9 41C100.7 39.56 100.22 38.24 99.46 37.04C98.74 35.84 97.72 34.88 96.4 34.16C95.08 33.44 93.46 33.08 91.54 33.08C89.58 33.08 87.82 33.52 86.26 34.4C84.74 35.28 83.52 36.54 82.6 38.18C81.72 39.82 81.28 41.78 81.28 44.06V44.6C81.28 46.88 81.72 48.84 82.6 50.48C83.52 52.12 84.74 53.38 86.26 54.26C87.82 55.14 89.58 55.58 91.54 55.58C94.46 55.58 96.68 54.82 98.2 53.3C99.76 51.78 100.72 49.9 101.08 47.66L105.76 48.68C105.32 50.6 104.52 52.42 103.36 54.14C102.2 55.86 100.62 57.24 98.62 58.28C96.66 59.32 94.28 59.84 91.48 59.84ZM127.399 59.84C124.439 59.84 121.819 59.22 119.539 57.98C117.299 56.74 115.539 55 114.259 52.76C113.019 50.48 112.399 47.8 112.399 44.72V43.94C112.399 40.9 113.019 38.24 114.259 35.96C115.539 33.68 117.299 31.92 119.539 30.68C121.819 29.44 124.439 28.82 127.399 28.82C130.359 28.82 132.959 29.44 135.199 30.68C137.479 31.92 139.239 33.68 140.479 35.96C141.759 38.24 142.399 40.9 142.399 43.94V44.72C142.399 47.8 141.759 50.48 140.479 52.76C139.239 55 137.479 56.74 135.199 57.98C132.959 59.22 130.359 59.84 127.399 59.84ZM127.399 55.58C130.519 55.58 132.999 54.6 134.839 52.64C136.719 50.64 137.659 47.96 137.659 44.6V44.06C137.659 40.7 136.719 38.04 134.839 36.08C132.999 34.08 130.519 33.08 127.399 33.08C124.319 33.08 121.839 34.08 119.959 36.08C118.079 38.04 117.139 40.7 117.139 44.06V44.6C117.139 47.96 118.079 50.64 119.959 52.64C121.839 54.6 124.319 55.58 127.399 55.58ZM150.929 59V29.66H155.549V34.64H156.389C157.029 33.24 158.109 31.98 159.629 30.86C161.189 29.7 163.469 29.12 166.469 29.12C168.669 29.12 170.629 29.58 172.349 30.5C174.109 31.42 175.509 32.78 176.549 34.58C177.589 36.38 178.109 38.6 178.109 41.24V59H173.369V41.6C173.369 38.68 172.629 36.56 171.149 35.24C169.709 33.92 167.749 33.26 165.269 33.26C162.429 33.26 160.109 34.18 158.309 36.02C156.549 37.86 155.669 40.6 155.669 44.24V59H150.929ZM200.146 59.84C197.626 59.84 195.306 59.24 193.186 58.04C191.066 56.84 189.386 55.1 188.146 52.82C186.906 50.54 186.286 47.84 186.286 44.72V43.94C186.286 40.82 186.906 38.14 188.146 35.9C189.386 33.62 191.046 31.88 193.126 30.68C195.246 29.44 197.586 28.82 200.146 28.82C202.186 28.82 203.906 29.1 205.306 29.66C206.746 30.18 207.906 30.86 208.786 31.7C209.666 32.5 210.346 33.36 210.826 34.28H211.666V17H216.406V59H211.786V54.14H210.946C210.146 55.62 208.906 56.94 207.226 58.1C205.546 59.26 203.186 59.84 200.146 59.84ZM201.406 55.64C204.446 55.64 206.906 54.68 208.786 52.76C210.706 50.8 211.666 48.08 211.666 44.6V44.06C211.666 40.58 210.706 37.88 208.786 35.96C206.906 34 204.446 33.02 201.406 33.02C198.406 33.02 195.926 34 193.966 35.96C192.046 37.88 191.086 40.58 191.086 44.06V44.6C191.086 48.08 192.046 50.8 193.966 52.76C195.926 54.68 198.406 55.64 201.406 55.64ZM237.559 59.54C235.439 59.54 233.479 59.08 231.679 58.16C229.919 57.24 228.519 55.88 227.479 54.08C226.479 52.24 225.979 50.02 225.979 47.42V29.66H230.719V47.06C230.719 49.98 231.439 52.1 232.879 53.42C234.359 54.74 236.339 55.4 238.819 55.4C241.619 55.4 243.919 54.48 245.719 52.64C247.519 50.8 248.419 48.06 248.419 44.42V29.66H253.159V59H248.539V54.02H247.699C247.059 55.42 245.959 56.7 244.399 57.86C242.839 58.98 240.559 59.54 237.559 59.54ZM263.078 59V29.66H267.818V59H263.078ZM265.478 25.1C264.438 25.1 263.558 24.76 262.838 24.08C262.158 23.4 261.818 22.54 261.818 21.5C261.818 20.42 262.158 19.54 262.838 18.86C263.558 18.18 264.438 17.84 265.478 17.84C266.518 17.84 267.378 18.18 268.058 18.86C268.738 19.54 269.078 20.42 269.078 21.5C269.078 22.54 268.738 23.4 268.058 24.08C267.378 24.76 266.518 25.1 265.478 25.1ZM288.585 59C286.905 59 285.605 58.54 284.685 57.62C283.805 56.7 283.365 55.44 283.365 53.84V33.8H274.545V29.66H283.365V19.22H288.105V29.66H297.705V33.8H288.105V53.12C288.105 54.32 288.685 54.92 289.845 54.92H296.385V59H288.585Z" fill="currentColor"/>
</svg>
