<svg width="222" height="43" viewBox="0 0 222 43" fill="none" xmlns="http://www.w3.org/2000/svg">
<path d="M14.94 42.84C12.1 42.84 9.54002 42.24 7.26002 41.04C5.02002 39.8 3.24002 38.04 1.92002 35.76C0.640022 33.48 2.22176e-05 30.78 2.22176e-05 27.66V27C2.22176e-05 23.84 0.640022 21.14 1.92002 18.9C3.24002 16.62 5.02002 14.88 7.26002 13.68C9.54002 12.44 12.1 11.82 14.94 11.82C17.74 11.82 20.12 12.34 22.08 13.38C24.08 14.42 25.64 15.8 26.76 17.52C27.92 19.24 28.66 21.08 28.98 23.04L24.36 24C24.16 22.56 23.68 21.24 22.92 20.04C22.2 18.84 21.18 17.88 19.86 17.16C18.54 16.44 16.92 16.08 15 16.08C13.04 16.08 11.28 16.52 9.72002 17.4C8.20002 18.28 6.98002 19.54 6.06002 21.18C5.18002 22.82 4.74002 24.78 4.74002 27.06V27.6C4.74002 29.88 5.18002 31.84 6.06002 33.48C6.98002 35.12 8.20002 36.38 9.72002 37.26C11.28 38.14 13.04 38.58 15 38.58C17.92 38.58 20.14 37.82 21.66 36.3C23.22 34.78 24.18 32.9 24.54 30.66L29.22 31.68C28.78 33.6 27.98 35.42 26.82 37.14C25.66 38.86 24.08 40.24 22.08 41.28C20.12 42.32 17.74 42.84 14.94 42.84ZM50.8594 42.84C47.8994 42.84 45.2794 42.22 42.9994 40.98C40.7594 39.74 38.9994 38 37.7194 35.76C36.4794 33.48 35.8594 30.8 35.8594 27.72V26.94C35.8594 23.9 36.4794 21.24 37.7194 18.96C38.9994 16.68 40.7594 14.92 42.9994 13.68C45.2794 12.44 47.8994 11.82 50.8594 11.82C53.8194 11.82 56.4194 12.44 58.6594 13.68C60.9394 14.92 62.6994 16.68 63.9394 18.96C65.2194 21.24 65.8594 23.9 65.8594 26.94V27.72C65.8594 30.8 65.2194 33.48 63.9394 35.76C62.6994 38 60.9394 39.74 58.6594 40.98C56.4194 42.22 53.8194 42.84 50.8594 42.84ZM50.8594 38.58C53.9794 38.58 56.4594 37.6 58.2994 35.64C60.1794 33.64 61.1194 30.96 61.1194 27.6V27.06C61.1194 23.7 60.1794 21.04 58.2994 19.08C56.4594 17.08 53.9794 16.08 50.8594 16.08C47.7794 16.08 45.2994 17.08 43.4194 19.08C41.5394 21.04 40.5994 23.7 40.5994 27.06V27.6C40.5994 30.96 41.5394 33.64 43.4194 35.64C45.2994 37.6 47.7794 38.58 50.8594 38.58ZM74.3892 42V12.66H79.0092V17.64H79.8492C80.4892 16.24 81.5692 14.98 83.0892 13.86C84.6492 12.7 86.9292 12.12 89.9292 12.12C92.1292 12.12 94.0892 12.58 95.8092 13.5C97.5692 14.42 98.9692 15.78 100.009 17.58C101.049 19.38 101.569 21.6 101.569 24.24V42H96.8292V24.6C96.8292 21.68 96.0892 19.56 94.6092 18.24C93.1692 16.92 91.2092 16.26 88.7292 16.26C85.8892 16.26 83.5692 17.18 81.7692 19.02C80.0092 20.86 79.1292 23.6 79.1292 27.24V42H74.3892ZM123.606 42.84C121.086 42.84 118.766 42.24 116.646 41.04C114.526 39.84 112.846 38.1 111.606 35.82C110.366 33.54 109.746 30.84 109.746 27.72V26.94C109.746 23.82 110.366 21.14 111.606 18.9C112.846 16.62 114.506 14.88 116.586 13.68C118.706 12.44 121.046 11.82 123.606 11.82C125.646 11.82 127.366 12.1 128.766 12.66C130.206 13.18 131.366 13.86 132.246 14.7C133.126 15.5 133.806 16.36 134.286 17.28H135.126V9.53674e-07H139.866V42H135.246V37.14H134.406C133.606 38.62 132.366 39.94 130.686 41.1C129.006 42.26 126.646 42.84 123.606 42.84ZM124.866 38.64C127.906 38.64 130.366 37.68 132.246 35.76C134.166 33.8 135.126 31.08 135.126 27.6V27.06C135.126 23.58 134.166 20.88 132.246 18.96C130.366 17 127.906 16.02 124.866 16.02C121.866 16.02 119.386 17 117.426 18.96C115.506 20.88 114.546 23.58 114.546 27.06V27.6C114.546 31.08 115.506 33.8 117.426 35.76C119.386 37.68 121.866 38.64 124.866 38.64ZM161.019 42.54C158.899 42.54 156.939 42.08 155.139 41.16C153.379 40.24 151.979 38.88 150.939 37.08C149.939 35.24 149.439 33.02 149.439 30.42V12.66H154.179V30.06C154.179 32.98 154.899 35.1 156.339 36.42C157.819 37.74 159.799 38.4 162.279 38.4C165.079 38.4 167.379 37.48 169.179 35.64C170.979 33.8 171.879 31.06 171.879 27.42V12.66H176.619V42H171.999V37.02H171.159C170.519 38.42 169.419 39.7 167.859 40.86C166.299 41.98 164.019 42.54 161.019 42.54ZM186.538 42V12.66H191.278V42H186.538ZM188.938 8.1C187.898 8.1 187.018 7.76 186.298 7.08C185.618 6.4 185.278 5.54 185.278 4.5C185.278 3.42 185.618 2.54 186.298 1.86C187.018 1.18 187.898 0.840001 188.938 0.840001C189.978 0.840001 190.838 1.18 191.518 1.86C192.198 2.54 192.538 3.42 192.538 4.5C192.538 5.54 192.198 6.4 191.518 7.08C190.838 7.76 189.978 8.1 188.938 8.1ZM212.045 42C210.365 42 209.065 41.54 208.145 40.62C207.265 39.7 206.825 38.44 206.825 36.84V16.8H198.005V12.66H206.825V2.22H211.565V12.66H221.165V16.8H211.565V36.12C211.565 37.32 212.145 37.92 213.305 37.92H219.845V42H212.045Z" fill="#010203"/>
</svg>
